<?xml version="1.0" encoding="UTF-8"?>
<!DOCTYPE svg PUBLIC "-//W3C//DTD SVG 1.1//EN" "http://www.w3.org/Graphics/SVG/1.1/DTD/svg11.dtd">
<!-- Creator: CorelDRAW 2018 (64-Bit Evaluation Version) -->
<svg xmlns="http://www.w3.org/2000/svg" xml:space="preserve" width="1189mm" height="1189mm" version="1.1" style="shape-rendering:geometricPrecision; text-rendering:geometricPrecision; image-rendering:optimizeQuality; fill-rule:evenodd; clip-rule:evenodd"
viewBox="0 0 118900 118900"
 xmlns:xlink="http://www.w3.org/1999/xlink">
 <defs>
  <style type="text/css">
   <![CDATA[
    .str0 {stroke:#332C2B;stroke-width:20;stroke-miterlimit:22.9256}
    .fil0 {fill:none}
    .fil2 {fill:#2A93D5}
    .fil1 {fill:#E6E8ED}
   ]]>
  </style>
 </defs>
 <g id="Layer_x0020_1">
  <metadata id="CorelCorpID_0Corel-Layer"/>
  <g id="_2062276382336">
   <line class="fil0 str0" x1="103054.85" y1="29539.9" x2="101959.77" y2= "28444.82" />
   <rect class="fil1" transform="matrix(0.82626 0.82626 -0.82626 0.82626 6631.19 72952.8)" width="1855.4" height="1865.33"/>
   <rect class="fil1" transform="matrix(0.904343 0.904343 -0.82626 0.82626 10943.4 77265)" width="1855.4" height="1865.33"/>
   <rect class="fil1" transform="matrix(0.904343 0.904343 -0.82626 0.82626 15277.4 81599)" width="1855.4" height="1865.33"/>
   <rect class="fil1" transform="matrix(0.76 0.76 -0.82626 0.82626 19595.1 85916.7)" width="1855.4" height="1865.33"/>
   <rect class="fil1" transform="matrix(0.824839 0.824839 -0.82626 0.82626 10948.8 73094.9)" width="1855.4" height="1865.33"/>
   <rect class="fil1" transform="matrix(0.824839 0.824839 -0.89809 0.89809 15400.5 77278.5)" width="1855.4" height="1865.33"/>
   <rect class="fil1" transform="matrix(0.908801 0.908801 -0.89809 0.89809 19734.5 81612.6)" width="1855.4" height="1865.33"/>
   <rect class="fil1" transform="matrix(0.838186 0.838186 -0.75016 0.75016 15269.4 68758)" width="1855.4" height="1865.33"/>
   <rect class="fil1" transform="matrix(0.902945 0.902945 -0.82626 0.82626 15266.5 72952.8)" width="1855.4" height="1865.33"/>
   <rect class="fil1" transform="matrix(0.902945 0.902945 -0.82626 0.82626 19600.5 77286.9)" width="1855.4" height="1865.33"/>
   <rect class="fil1" transform="matrix(0.761572 0.761572 -0.905434 0.905434 24054.9 81445.9)" width="1855.4" height="1865.33"/>
   <rect class="fil1" transform="matrix(0.83233 0.83233 -0.824882 0.824882 19737.3 72947.2)" width="1855.4" height="1865.33"/>
   <rect class="fil1" transform="matrix(0.908939 0.908939 -0.824882 0.824882 24071.3 77281.2)" width="1855.4" height="1865.33"/>
   <rect class="fil1" transform="matrix(0.824839 0.824839 -0.82626 0.82626 10954.3 68618.7)" width="1855.4" height="1865.33"/>
   <rect class="fil1" transform="matrix(0.838186 0.838186 -0.823363 0.823363 15260.2 64294.3)" width="1855.4" height="1865.33"/>
   <rect class="fil1" transform="matrix(0.751378 0.751378 -0.75016 0.75016 19718.2 68768.9)" width="1855.4" height="1865.33"/>
   <rect class="fil1" transform="matrix(0.825049 0.825049 -0.824882 0.824882 24082.3 73094.7)" width="1855.4" height="1865.33"/>
   <rect class="fil1" transform="matrix(0.749521 0.749521 -0.905434 0.905434 28405.9 77139.7)" width="1855.4" height="1865.33"/>
   <rect class="fil1" transform="matrix(0.831564 0.831564 -0.758833 0.758833 19605.2 64430.9)" width="1855.4" height="1865.33"/>
   <rect class="fil1" transform="matrix(0.831564 0.831564 -0.821843 0.821843 24052.1 68626.4)" width="1855.4" height="1865.33"/>
   <rect class="fil1" transform="matrix(0.831564 0.831564 -0.821843 0.821843 28375.2 72949.5)" width="1855.4" height="1865.33"/>
   <rect class="fil1" transform="matrix(0.749521 0.749521 -0.905434 0.905434 32832.8 72931.3)" width="1855.4" height="1865.33"/>
   <rect class="fil1" transform="matrix(0.828144 0.828144 -0.900969 0.900969 28512.7 68627.3)" width="1855.4" height="1865.33"/>
   <rect class="fil1" transform="matrix(0.904526 0.904526 -0.900969 0.900969 24051.3 64146.6)" width="1855.4" height="1865.33"/>
   <rect class="fil1" transform="matrix(0.904526 0.904526 -0.824054 0.824054 19597 59965.6)" width="1855.4" height="1865.33"/>
   <rect class="fil1" transform="matrix(0.674795 0.674795 -0.673896 0.673896 24055.4 60262.1)" width="1855.4" height="1865.33"/>
   <rect class="fil1" transform="matrix(0.75576 0.75576 -0.673896 0.673896 28389.5 64574.4)" width="1855.4" height="1865.33"/>
   <rect class="fil1" transform="matrix(0.832365 0.832365 -0.823332 0.823332 32720.8 68627)" width="1855.4" height="1865.33"/>
   <rect class="fil1" transform="matrix(0.674795 0.674795 -0.744211 0.744211 24058.4 55772.7)" width="1855.4" height="1865.33"/>
   <rect class="fil1" transform="matrix(0.758632 0.758632 -0.744211 0.744211 28376.1 60123.1)" width="1855.4" height="1865.33"/>
   <rect class="fil1" transform="matrix(0.758632 0.758632 -0.744211 0.744211 32704.7 64451.7)" width="1855.4" height="1865.33"/>
   <rect class="fil1" transform="matrix(0.743905 0.743905 -0.826269 0.826269 37175.4 68638.1)" width="1855.4" height="1865.33"/>
   <rect class="fil1" transform="matrix(0.674795 0.674795 -0.673896 0.673896 28373 55922.6)" width="1855.4" height="1865.33"/>
   <rect class="fil1" transform="matrix(0.674795 0.674795 -0.673896 0.673896 32728.9 51599.5)" width="1855.4" height="1865.33"/>
   <rect class="fil1" transform="matrix(0.594632 0.594632 -0.596312 0.596312 37175.1 47426.6)" width="1855.4" height="1865.33"/>
   <rect class="fil1" transform="matrix(0.75576 0.75576 -0.673896 0.673896 32691.3 60246)" width="1855.4" height="1865.33"/>
   <rect class="fil1" transform="matrix(0.75576 0.75576 -0.747139 0.747139 37189.3 55791.8)" width="1855.4" height="1865.33"/>
   <rect class="fil1" transform="matrix(0.692893 0.692893 -0.672324 0.672324 37160.7 60239.6)" width="1855.4" height="1865.33"/>
   <rect class="fil1" transform="matrix(0.747807 0.747807 -0.747037 0.747037 37186.1 64435)" width="1855.4" height="1865.33"/>
   <rect class="fil1" transform="matrix(0.743905 0.743905 -0.826269 0.826269 41514.9 64287.7)" width="1855.4" height="1865.33"/>
   <rect class="fil1" transform="matrix(0.599566 0.599566 -0.600644 0.600644 28388.9 51735.1)" width="1855.4" height="1865.33"/>
   <rect class="fil1" transform="matrix(0.671865 0.671865 -0.67596 0.67596 32857.7 55925.7)" width="1855.4" height="1865.33"/>
   <rect class="fil1" transform="matrix(0.762244 0.762244 -0.746257 0.746257 41489.3 60097.5)" width="1855.4" height="1865.33"/>
   <rect class="fil1" transform="matrix(0.682718 0.682718 -0.747161 0.747161 45961.6 60106.8)" width="1855.4" height="1865.33"/>
   <rect class="fil1" transform="matrix(0.674777 0.674777 -0.676164 0.676164 41522.1 55918.7)" width="1855.4" height="1865.33"/>
   <rect class="fil1" transform="matrix(0.687972 0.687972 -0.685772 0.685772 37167.1 51588.3)" width="1855.4" height="1865.33"/>
   <rect class="fil1" transform="matrix(0.615068 0.615068 -0.679934 0.679934 32855.3 47260)" width="1855.4" height="1865.33"/>
   <rect class="fil1" transform="matrix(0.687972 0.687972 -0.679951 0.679951 41501.2 51451.6)" width="1855.4" height="1865.33"/>
   <rect class="fil1" transform="matrix(0.763144 0.763144 -0.750297 0.750297 45832.6 55782.9)" width="1855.4" height="1865.33"/>
   <rect class="fil1" transform="matrix(0.607061 0.607061 -0.596312 0.596312 37175.1 42945)" width="1855.4" height="1865.33"/>
   <rect class="fil1" transform="matrix(0.681475 0.681475 -0.677785 0.677785 41524.5 47274.6)" width="1855.4" height="1865.33"/>
   <rect class="fil1" transform="matrix(0.687972 0.687972 -0.679951 0.679951 45818.9 51593.7)" width="1855.4" height="1865.33"/>
   <rect class="fil1" transform="matrix(0.687972 0.687972 -0.743746 0.743746 50288.3 55803.3)" width="1855.4" height="1865.33"/>
   <rect class="fil1" transform="matrix(0.607061 0.607061 -0.596312 0.596312 41473.1 43088.4)" width="1855.4" height="1865.33"/>
   <rect class="fil1" transform="matrix(0.607061 0.607061 -0.682206 0.682206 45965.1 47260.9)" width="1855.4" height="1865.33"/>
   <rect class="fil1" transform="matrix(0.687972 0.687972 -0.685156 0.685156 50266.5 51562.1)" width="1855.4" height="1865.33"/>
   <rect class="fil1" transform="matrix(0.607061 0.607061 -0.596312 0.596312 41498.2 38610.9)" width="1855.4" height="1865.33"/>
   <rect class="fil1" transform="matrix(0.522547 0.522547 -0.596312 0.596312 45968.9 34446.3)" width="1855.4" height="1865.33"/>
   <rect class="fil1" transform="matrix(0.599677 0.599677 -0.59408 0.59408 45834.4 38770.8)" width="1855.4" height="1865.33"/>
   <rect class="fil1" transform="matrix(0.599677 0.599677 -0.516452 0.516452 50157.5 34447.7)" width="1855.4" height="1865.33"/>
   <rect class="fil1" transform="matrix(0.603596 0.603596 -0.597712 0.597712 45825.7 42951.5)" width="1855.4" height="1865.33"/>
   <rect class="fil1" transform="matrix(0.597722 0.597722 -0.613849 0.613849 50315.6 38756.8)" width="1855.4" height="1865.33"/>
   <rect class="fil1" transform="matrix(0.607061 0.607061 -0.518635 0.518635 50140.7 43085.3)" width="1855.4" height="1865.33"/>
   <rect class="fil1" transform="matrix(0.607061 0.607061 -0.518635 0.518635 54458.3 38767.7)" width="1855.4" height="1865.33"/>
   <rect class="fil1" transform="matrix(0.669955 0.669955 -0.679951 0.679951 50163.8 47292.5)" width="1855.4" height="1865.33"/>
   <rect class="fil1" transform="matrix(0.616956 0.616956 -0.595471 0.595471 54585.3 43067.7)" width="1855.4" height="1865.33"/>
   <rect class="fil1" transform="matrix(0.608139 0.608139 -0.679951 0.679951 54612.6 47270.6)" width="1855.4" height="1865.33"/>
   <rect class="fil1" transform="matrix(0.608139 0.608139 -0.611771 0.611771 58956.1 42938)" width="1855.4" height="1865.33"/>
   <rect class="fil1" transform="matrix(0.614084 0.614084 -0.603085 0.603085 54616.8 51737.1)" width="1855.4" height="1865.33"/>
   <rect class="fil1" transform="matrix(0.611171 0.611171 -0.603085 0.603085 58950.9 47414)" width="1855.4" height="1865.33"/>
   <rect class="fil1" transform="matrix(0.682718 0.682718 -0.671066 0.671066 50284.9 60243.2)" width="1855.4" height="1865.33"/>
   <rect class="fil1" transform="matrix(0.682718 0.682718 -0.671066 0.671066 54613.5 55925.6)" width="1855.4" height="1865.33"/>
   <rect class="fil1" transform="matrix(0.682718 0.682718 -0.671066 0.671066 58942 51607.9)" width="1855.4" height="1865.33"/>
   <rect class="fil1" transform="matrix(0.682718 0.682718 -0.671066 0.671066 63254.2 47273.9)" width="1855.4" height="1865.33"/>
   <rect class="fil1" transform="matrix(0.761852 0.761852 -0.75315 0.75315 54629.9 60112)" width="1855.4" height="1865.33"/>
   <rect class="fil1" transform="matrix(0.751565 0.751565 -0.75315 0.75315 58964 55799.8)" width="1855.4" height="1865.33"/>
   <rect class="fil1" transform="matrix(0.677939 0.677939 -0.672399 0.672399 63426.5 51605.1)" width="1855.4" height="1865.33"/>
   <rect class="fil1" transform="matrix(0.831145 0.831145 -0.822038 0.822038 54610.9 64295.6)" width="1855.4" height="1865.33"/>
   <rect class="fil1" transform="matrix(0.757524 0.757524 -0.669683 0.669683 58939.5 60262.2)" width="1855.4" height="1865.33"/>
   <rect class="fil1" transform="matrix(0.68209 0.68209 -0.67425 0.67425 63279 55922.7)" width="1855.4" height="1865.33"/>
   <rect class="fil1" transform="matrix(0.68209 0.68209 -0.603718 0.603718 67615.3 51597.2)" width="1855.4" height="1865.33"/>
   <rect class="fil1" transform="matrix(0.752077 0.752077 -0.739099 0.739099 58928.5 64459.6)" width="1855.4" height="1865.33"/>
   <rect class="fil1" transform="matrix(0.683417 0.683417 -0.74057 0.74057 63393.7 60256.7)" width="1855.4" height="1865.33"/>
   <rect class="fil1" transform="matrix(0.693735 0.693735 -0.671987 0.671987 67727.8 55922.7)" width="1855.4" height="1865.33"/>
   <rect class="fil1" transform="matrix(0.831145 0.831145 -0.822038 0.822038 58939.3 68635.3)" width="1855.4" height="1865.33"/>
   <rect class="fil1" transform="matrix(0.760218 0.760218 -0.753827 0.753827 63406.7 64424.1)" width="1855.4" height="1865.33"/>
   <rect class="fil1" transform="matrix(0.760218 0.760218 -0.758873 0.758873 67722.8 60097)" width="1855.4" height="1865.33"/>
   <rect class="fil1" transform="matrix(0.829235 0.829235 -0.753951 0.753951 63278.8 68755.5)" width="1855.4" height="1865.33"/>
   <rect class="fil1" transform="matrix(0.832178 0.832178 -0.745695 0.745695 67597.5 64436.9)" width="1855.4" height="1865.33"/>
   <rect class="fil1" transform="matrix(0.823343 0.823343 -0.82571 0.82571 63284.3 72969.3)" width="1855.4" height="1865.33"/>
   <rect class="fil1" transform="matrix(0.75853 0.75853 -0.746607 0.746607 67727.6 68766.4)" width="1855.4" height="1865.33"/>
   <rect class="fil1" transform="matrix(0.832895 0.832895 -0.8421 0.8421 67749.1 72917.8)" width="1855.4" height="1865.33"/>
   <rect class="fil1" transform="matrix(0.897686 0.897686 -0.82746 0.82746 67607.1 77290.1)" width="1855.4" height="1865.33"/>
   <rect class="fil2" transform="matrix(0.751369 0.751369 -0.746129 0.746129 71646.6 55381.4)" width="1855.4" height="1865.33"/>
   <rect class="fil2" transform="matrix(0.751369 0.751369 -0.746129 0.746129 71515.4 59699.1)" width="1855.4" height="1865.33"/>
   <rect class="fil2" transform="matrix(0.748105 0.748105 -0.678706 0.678706 71509.9 64164.3)" width="1855.4" height="1865.33"/>
   <rect class="fil2" transform="matrix(0.674466 0.674466 -0.587869 0.587869 71504.4 68651.4)" width="1855.4" height="1865.33"/>
   <rect class="fil2" transform="matrix(0.603022 0.603022 -0.606212 0.606212 71653.4 72940.3)" width="1855.4" height="1865.33"/>
   <rect class="fil2" transform="matrix(0.603022 0.603022 -0.606212 0.606212 71527.7 77274.4)" width="1855.4" height="1865.33"/>
   <rect class="fil2" transform="matrix(0.597139 0.597139 -0.532247 0.532247 71526.4 81746.4)" width="1855.4" height="1865.33"/>
   <rect class="fil2" transform="matrix(0.675192 0.675192 -0.746129 0.746129 75964.3 55512.6)" width="1855.4" height="1865.33"/>
   <rect class="fil2" transform="matrix(0.753249 0.753249 -0.746129 0.746129 75977.9 59690.9)" width="1855.4" height="1865.33"/>
   <rect class="fil2" transform="matrix(0.673722 0.673722 -0.675362 0.675362 75967 64161.5)" width="1855.4" height="1865.33"/>
   <rect class="fil2" transform="matrix(0.594195 0.594195 -0.675362 0.675362 75972.4 68637.7)" width="1855.4" height="1865.33"/>
   <rect class="fil2" transform="matrix(0.594195 0.594195 -0.59334 0.59334 75977.9 73102.9)" width="1855.4" height="1865.33"/>
   <rect class="fil2" transform="matrix(0.598613 0.598613 -0.59334 0.59334 75991.6 77275.7)" width="1855.4" height="1865.33"/>
   <rect class="fil2" transform="matrix(0.530857 0.530857 -0.605069 0.605069 75988.8 81732.7)" width="1855.4" height="1865.33"/>
   <rect class="fil2" transform="matrix(0.745892 0.745892 -0.821861 0.821861 80451.3 51047.4)" width="1855.4" height="1865.33"/>
   <rect class="fil2" transform="matrix(0.75845 0.75845 -0.745677 0.745677 80301 55367.7)" width="1855.4" height="1865.33"/>
   <rect class="fil2" transform="matrix(0.695111 0.695111 -0.680496 0.680496 80295.5 59789.2)" width="1855.4" height="1865.33"/>
   <rect class="fil2" transform="matrix(0.668605 0.668605 -0.671717 0.671717 80311.9 64298.1)" width="1855.4" height="1865.33"/>
   <rect class="fil2" transform="matrix(0.683341 0.683341 -0.671717 0.671717 80311.9 68479.1)" width="1855.4" height="1865.33"/>
   <rect class="fil2" transform="matrix(0.612721 0.612721 -0.601406 0.601406 80300.8 72938.7)" width="1855.4" height="1865.33"/>
   <rect class="fil2" transform="matrix(0.612721 0.612721 -0.601406 0.601406 80311.8 77414.9)" width="1855.4" height="1865.33"/>
   <rect class="fil2" transform="matrix(0.745892 0.745892 -0.821861 0.821861 84763.5 46724.3)" width="1855.4" height="1865.33"/>
   <rect class="fil2" transform="matrix(0.76435 0.76435 -0.746426 0.746426 84621.4 51041.9)" width="1855.4" height="1865.33"/>
   <rect class="fil2" transform="matrix(0.76435 0.76435 -0.749371 0.749371 84771.7 55362.3)" width="1855.4" height="1865.33"/>
   <rect class="fil2" transform="matrix(0.76435 0.76435 -0.749371 0.749371 84640.6 59685.4)" width="1855.4" height="1865.33"/>
   <rect class="fil2" transform="matrix(0.683305 0.683305 -0.680523 0.680523 84629.6 64145.2)" width="1855.4" height="1865.33"/>
   <rect class="fil2" transform="matrix(0.683305 0.683305 -0.607271 0.607271 84646 68621.3)" width="1855.4" height="1865.33"/>
   <rect class="fil2" transform="matrix(0.606696 0.606696 -0.598496 0.598496 84618.7 73097.5)" width="1855.4" height="1865.33"/>
   <rect class="fil2" transform="matrix(0.745892 0.745892 -0.903201 0.903201 89245.1 42253.6)" width="1855.4" height="1865.33"/>
   <rect class="fil2" transform="matrix(0.745892 0.745892 -0.815301 0.815301 89075.7 46576.7)" width="1855.4" height="1865.33"/>
   <rect class="fil2" transform="matrix(0.756954 0.756954 -0.752308 0.752308 89086.6 51025.5)" width="1855.4" height="1865.33"/>
   <rect class="fil2" transform="matrix(0.756954 0.756954 -0.752308 0.752308 88963.6 55367.8)" width="1855.4" height="1865.33"/>
   <rect class="fil2" transform="matrix(0.678897 0.678897 -0.679087 0.679087 88963.7 59822.1)" width="1855.4" height="1865.33"/>
   <rect class="fil2" transform="matrix(0.686258 0.686258 -0.679087 0.679087 89086.6 64153.4)" width="1855.4" height="1865.33"/>
   <rect class="fil2" transform="matrix(0.686258 0.686258 -0.679087 0.679087 88950 68498.4)" width="1855.4" height="1865.33"/>
   <rect class="fil2" transform="matrix(0.689228 0.689228 -0.816833 0.816833 93677.5 38061.7)" width="1855.4" height="1865.33"/>
   <rect class="fil2" transform="matrix(0.827685 0.827685 -0.816833 0.816833 93420.6 42253.6)" width="1855.4" height="1865.33"/>
   <rect class="fil2" transform="matrix(0.748154 0.748154 -0.740645 0.740645 93420.6 46746.1)" width="1855.4" height="1865.33"/>
   <rect class="fil2" transform="matrix(0.748154 0.748154 -0.828541 0.828541 93431.6 50921.7)" width="1855.4" height="1865.33"/>
   <rect class="fil2" transform="matrix(0.748154 0.748154 -0.755289 0.755289 93431.6 55370.5)" width="1855.4" height="1865.33"/>
   <rect class="fil2" transform="matrix(0.680402 0.680402 -0.682042 0.682042 93415.2 59813.8)" width="1855.4" height="1865.33"/>
   <rect class="fil2" transform="matrix(0.603806 0.603806 -0.594146 0.594146 93426.1 64306.4)" width="1855.4" height="1865.33"/>
   <rect class="fil2" transform="matrix(0.756985 0.756985 -0.898869 0.898869 98017 33733.1)" width="1855.4" height="1865.33"/>
   <rect class="fil2" transform="matrix(0.830629 0.830629 -0.816833 0.816833 97738.3 37946.9)" width="1855.4" height="1865.33"/>
   <rect class="fil2" transform="matrix(0.824733 0.824733 -0.822694 0.822694 97749.2 42122.5)" width="1855.4" height="1865.33"/>
   <rect class="fil2" transform="matrix(0.827685 0.827685 -0.740667 0.740667 97732.8 46576.7)" width="1855.4" height="1865.33"/>
   <rect class="fil2" transform="matrix(0.756985 0.756985 -0.761185 0.761185 97743.7 51025.5)" width="1855.4" height="1865.33"/>
   <rect class="fil2" transform="matrix(0.680402 0.680402 -0.673285 0.673285 97749.2 55501.7)" width="1855.4" height="1865.33"/>
   <rect class="fil2" transform="matrix(0.75405 0.75405 -0.737744 0.737744 97732.8 59715.5)" width="1855.4" height="1865.33"/>
   <rect class="fil2" transform="matrix(0.756985 0.756985 -0.970677 0.970677 102471 29257)" width="1855.4" height="1865.33"/>
   <rect class="fil2" transform="matrix(0.904255 0.904255 -0.906218 0.906218 102078 33301.4)" width="1855.4" height="1865.33"/>
   <rect class="fil2" transform="matrix(0.904255 0.904255 -0.830025 0.830025 102089 37788.4)" width="1855.4" height="1865.33"/>
   <rect class="fil2" transform="matrix(0.836502 0.836502 -0.904747 0.904747 102212 42092.4)" width="1855.4" height="1865.33"/>
   <rect class="fil2" transform="matrix(0.748136 0.748136 -0.742133 0.742133 102070 46727)" width="1855.4" height="1865.33"/>
   <rect class="fil2" transform="matrix(0.827672 0.827672 -0.742133 0.742133 102083 50910.8)" width="1855.4" height="1865.33"/>
   <rect class="fil2" transform="matrix(0.758432 0.758432 -0.742133 0.742133 102072 55359.6)" width="1855.4" height="1865.33"/>
   <rect class="fil2" transform="matrix(0.904255 0.904255 -0.906218 0.906218 106538 33345.1)" width="1855.4" height="1865.33"/>
   <rect class="fil2" transform="matrix(0.832076 0.832076 -0.906218 0.906218 106548 37772)" width="1855.4" height="1865.33"/>
   <rect class="fil2" transform="matrix(0.90425 0.90425 -0.824164 0.824164 106412 42117)" width="1855.4" height="1865.33"/>
   <rect class="fil2" transform="matrix(0.826184 0.826184 -0.824164 0.824164 106417 46571.3)" width="1855.4" height="1865.33"/>
   <rect class="fil2" transform="matrix(0.751075 0.751075 -0.824164 0.824164 106554 50910.8)" width="1855.4" height="1865.33"/>
   <rect class="fil2" transform="matrix(0.904255 0.904255 -0.906218 0.906218 110861 37646.3)" width="1855.4" height="1865.33"/>
   <rect class="fil2" transform="matrix(0.83208 0.83208 -0.825675 0.825675 110872 42111.5)" width="1855.4" height="1865.33"/>
   <rect class="fil2" transform="matrix(0.83208 0.83208 -0.825675 0.825675 110877 46576.8)" width="1855.4" height="1865.33"/>
   <rect class="fil2" transform="matrix(0.83208 0.83208 -0.825675 0.825675 115178 42275.5)" width="1855.4" height="1865.33"/>
  </g>
 </g>
</svg>
